<mxfile host="app.diagrams.net" modified="2024-01-12T07:32:58.395Z" agent="Mozilla/5.0 (Windows NT 10.0; Win64; x64) AppleWebKit/537.36 (KHTML, like Gecko) Chrome/120.0.0.0 Safari/537.36" etag="4yh5ySTFZBkEVquq4RL9" version="22.1.18" type="device">
  <diagram name="페이지-1" id="NmKHLGQyvXFELS5Vect0">
    <mxGraphModel dx="2867" dy="1051" grid="1" gridSize="10" guides="1" tooltips="1" connect="1" arrows="1" fold="1" page="1" pageScale="1" pageWidth="827" pageHeight="1169" math="0" shadow="0">
      <root>
        <mxCell id="0" />
        <mxCell id="1" parent="0" />
        <mxCell id="L_Qbva6FgTCeG8r_FS7e-23" style="edgeStyle=orthogonalEdgeStyle;rounded=0;orthogonalLoop=1;jettySize=auto;html=1;" edge="1" parent="1" source="L_Qbva6FgTCeG8r_FS7e-1" target="L_Qbva6FgTCeG8r_FS7e-22">
          <mxGeometry relative="1" as="geometry" />
        </mxCell>
        <mxCell id="L_Qbva6FgTCeG8r_FS7e-67" style="rounded=0;orthogonalLoop=1;jettySize=auto;html=1;" edge="1" parent="1" source="L_Qbva6FgTCeG8r_FS7e-1">
          <mxGeometry relative="1" as="geometry">
            <mxPoint x="309.9999999999998" y="410" as="targetPoint" />
          </mxGeometry>
        </mxCell>
        <mxCell id="L_Qbva6FgTCeG8r_FS7e-68" style="rounded=0;orthogonalLoop=1;jettySize=auto;html=1;entryX=0.5;entryY=1;entryDx=0;entryDy=0;" edge="1" parent="1" source="L_Qbva6FgTCeG8r_FS7e-1" target="L_Qbva6FgTCeG8r_FS7e-8">
          <mxGeometry relative="1" as="geometry" />
        </mxCell>
        <mxCell id="L_Qbva6FgTCeG8r_FS7e-87" style="edgeStyle=orthogonalEdgeStyle;rounded=0;orthogonalLoop=1;jettySize=auto;html=1;entryX=1;entryY=0.5;entryDx=0;entryDy=0;" edge="1" parent="1" source="L_Qbva6FgTCeG8r_FS7e-1" target="L_Qbva6FgTCeG8r_FS7e-83">
          <mxGeometry relative="1" as="geometry" />
        </mxCell>
        <mxCell id="L_Qbva6FgTCeG8r_FS7e-88" style="edgeStyle=orthogonalEdgeStyle;rounded=0;orthogonalLoop=1;jettySize=auto;html=1;entryX=0;entryY=0.5;entryDx=0;entryDy=0;" edge="1" parent="1" source="L_Qbva6FgTCeG8r_FS7e-1" target="L_Qbva6FgTCeG8r_FS7e-21">
          <mxGeometry relative="1" as="geometry" />
        </mxCell>
        <mxCell id="L_Qbva6FgTCeG8r_FS7e-1" value="사용자" style="rounded=1;arcSize=10;whiteSpace=wrap;html=1;align=center;" vertex="1" parent="1">
          <mxGeometry x="300" y="460" width="100" height="40" as="geometry" />
        </mxCell>
        <mxCell id="L_Qbva6FgTCeG8r_FS7e-59" style="rounded=0;orthogonalLoop=1;jettySize=auto;html=1;entryX=0;entryY=0.5;entryDx=0;entryDy=0;" edge="1" parent="1" source="L_Qbva6FgTCeG8r_FS7e-2" target="L_Qbva6FgTCeG8r_FS7e-55">
          <mxGeometry relative="1" as="geometry" />
        </mxCell>
        <mxCell id="L_Qbva6FgTCeG8r_FS7e-60" style="rounded=0;orthogonalLoop=1;jettySize=auto;html=1;" edge="1" parent="1" source="L_Qbva6FgTCeG8r_FS7e-2" target="L_Qbva6FgTCeG8r_FS7e-56">
          <mxGeometry relative="1" as="geometry" />
        </mxCell>
        <mxCell id="L_Qbva6FgTCeG8r_FS7e-2" value="설정" style="rounded=1;arcSize=10;whiteSpace=wrap;html=1;align=center;" vertex="1" parent="1">
          <mxGeometry x="640" y="460" width="100" height="40" as="geometry" />
        </mxCell>
        <mxCell id="L_Qbva6FgTCeG8r_FS7e-37" value="" style="rounded=0;orthogonalLoop=1;jettySize=auto;html=1;" edge="1" parent="1" source="L_Qbva6FgTCeG8r_FS7e-3" target="L_Qbva6FgTCeG8r_FS7e-33">
          <mxGeometry relative="1" as="geometry" />
        </mxCell>
        <mxCell id="L_Qbva6FgTCeG8r_FS7e-38" style="rounded=0;orthogonalLoop=1;jettySize=auto;html=1;" edge="1" parent="1" source="L_Qbva6FgTCeG8r_FS7e-3" target="L_Qbva6FgTCeG8r_FS7e-34">
          <mxGeometry relative="1" as="geometry" />
        </mxCell>
        <mxCell id="L_Qbva6FgTCeG8r_FS7e-39" style="rounded=0;orthogonalLoop=1;jettySize=auto;html=1;entryX=0.5;entryY=0;entryDx=0;entryDy=0;" edge="1" parent="1" source="L_Qbva6FgTCeG8r_FS7e-3" target="L_Qbva6FgTCeG8r_FS7e-28">
          <mxGeometry relative="1" as="geometry" />
        </mxCell>
        <mxCell id="L_Qbva6FgTCeG8r_FS7e-40" style="rounded=0;orthogonalLoop=1;jettySize=auto;html=1;entryX=0.5;entryY=0;entryDx=0;entryDy=0;" edge="1" parent="1" source="L_Qbva6FgTCeG8r_FS7e-3" target="L_Qbva6FgTCeG8r_FS7e-32">
          <mxGeometry relative="1" as="geometry" />
        </mxCell>
        <mxCell id="L_Qbva6FgTCeG8r_FS7e-63" style="edgeStyle=orthogonalEdgeStyle;rounded=0;orthogonalLoop=1;jettySize=auto;html=1;entryX=0;entryY=0.5;entryDx=0;entryDy=0;" edge="1" parent="1" source="L_Qbva6FgTCeG8r_FS7e-3" target="L_Qbva6FgTCeG8r_FS7e-62">
          <mxGeometry relative="1" as="geometry" />
        </mxCell>
        <mxCell id="L_Qbva6FgTCeG8r_FS7e-3" value="냉장고" style="rounded=1;arcSize=10;whiteSpace=wrap;html=1;align=center;" vertex="1" parent="1">
          <mxGeometry x="95" y="810" width="100" height="40" as="geometry" />
        </mxCell>
        <mxCell id="L_Qbva6FgTCeG8r_FS7e-43" style="rounded=0;orthogonalLoop=1;jettySize=auto;html=1;entryX=0.5;entryY=0;entryDx=0;entryDy=0;" edge="1" parent="1" source="L_Qbva6FgTCeG8r_FS7e-4" target="L_Qbva6FgTCeG8r_FS7e-41">
          <mxGeometry relative="1" as="geometry" />
        </mxCell>
        <mxCell id="L_Qbva6FgTCeG8r_FS7e-44" style="rounded=0;orthogonalLoop=1;jettySize=auto;html=1;" edge="1" parent="1" source="L_Qbva6FgTCeG8r_FS7e-4" target="L_Qbva6FgTCeG8r_FS7e-42">
          <mxGeometry relative="1" as="geometry" />
        </mxCell>
        <mxCell id="L_Qbva6FgTCeG8r_FS7e-65" style="rounded=0;orthogonalLoop=1;jettySize=auto;html=1;" edge="1" parent="1" source="L_Qbva6FgTCeG8r_FS7e-4" target="L_Qbva6FgTCeG8r_FS7e-62">
          <mxGeometry relative="1" as="geometry" />
        </mxCell>
        <mxCell id="L_Qbva6FgTCeG8r_FS7e-4" value="장바구니" style="rounded=1;arcSize=10;whiteSpace=wrap;html=1;align=center;" vertex="1" parent="1">
          <mxGeometry x="300" y="670" width="100" height="40" as="geometry" />
        </mxCell>
        <mxCell id="L_Qbva6FgTCeG8r_FS7e-49" style="rounded=0;orthogonalLoop=1;jettySize=auto;html=1;" edge="1" parent="1" source="L_Qbva6FgTCeG8r_FS7e-5">
          <mxGeometry relative="1" as="geometry">
            <mxPoint x="503.12069363122623" y="884.5993879724472" as="targetPoint" />
          </mxGeometry>
        </mxCell>
        <mxCell id="L_Qbva6FgTCeG8r_FS7e-50" style="rounded=0;orthogonalLoop=1;jettySize=auto;html=1;" edge="1" parent="1" source="L_Qbva6FgTCeG8r_FS7e-5" target="L_Qbva6FgTCeG8r_FS7e-46">
          <mxGeometry relative="1" as="geometry" />
        </mxCell>
        <mxCell id="L_Qbva6FgTCeG8r_FS7e-51" style="rounded=0;orthogonalLoop=1;jettySize=auto;html=1;" edge="1" parent="1" source="L_Qbva6FgTCeG8r_FS7e-5" target="L_Qbva6FgTCeG8r_FS7e-48">
          <mxGeometry relative="1" as="geometry" />
        </mxCell>
        <mxCell id="L_Qbva6FgTCeG8r_FS7e-52" style="rounded=0;orthogonalLoop=1;jettySize=auto;html=1;" edge="1" parent="1" source="L_Qbva6FgTCeG8r_FS7e-5" target="L_Qbva6FgTCeG8r_FS7e-47">
          <mxGeometry relative="1" as="geometry" />
        </mxCell>
        <mxCell id="L_Qbva6FgTCeG8r_FS7e-54" style="rounded=0;orthogonalLoop=1;jettySize=auto;html=1;" edge="1" parent="1" source="L_Qbva6FgTCeG8r_FS7e-5" target="L_Qbva6FgTCeG8r_FS7e-53">
          <mxGeometry relative="1" as="geometry" />
        </mxCell>
        <mxCell id="L_Qbva6FgTCeG8r_FS7e-64" style="edgeStyle=orthogonalEdgeStyle;rounded=0;orthogonalLoop=1;jettySize=auto;html=1;entryX=1;entryY=0.5;entryDx=0;entryDy=0;" edge="1" parent="1" source="L_Qbva6FgTCeG8r_FS7e-5" target="L_Qbva6FgTCeG8r_FS7e-62">
          <mxGeometry relative="1" as="geometry" />
        </mxCell>
        <mxCell id="L_Qbva6FgTCeG8r_FS7e-5" value="식품" style="rounded=1;arcSize=10;whiteSpace=wrap;html=1;align=center;" vertex="1" parent="1">
          <mxGeometry x="515" y="810" width="100" height="40" as="geometry" />
        </mxCell>
        <mxCell id="L_Qbva6FgTCeG8r_FS7e-6" style="edgeStyle=orthogonalEdgeStyle;rounded=0;orthogonalLoop=1;jettySize=auto;html=1;exitX=0.5;exitY=1;exitDx=0;exitDy=0;" edge="1" parent="1" source="L_Qbva6FgTCeG8r_FS7e-5" target="L_Qbva6FgTCeG8r_FS7e-5">
          <mxGeometry relative="1" as="geometry" />
        </mxCell>
        <mxCell id="L_Qbva6FgTCeG8r_FS7e-8" value="아이디" style="ellipse;whiteSpace=wrap;html=1;align=center;fontStyle=4;" vertex="1" parent="1">
          <mxGeometry x="364" y="360" width="100" height="40" as="geometry" />
        </mxCell>
        <mxCell id="L_Qbva6FgTCeG8r_FS7e-9" value="비밀번호" style="ellipse;whiteSpace=wrap;html=1;align=center;" vertex="1" parent="1">
          <mxGeometry x="250" y="360" width="100" height="40" as="geometry" />
        </mxCell>
        <mxCell id="L_Qbva6FgTCeG8r_FS7e-15" style="edgeStyle=orthogonalEdgeStyle;rounded=0;orthogonalLoop=1;jettySize=auto;html=1;entryX=0;entryY=0.5;entryDx=0;entryDy=0;" edge="1" parent="1" target="L_Qbva6FgTCeG8r_FS7e-2">
          <mxGeometry relative="1" as="geometry">
            <mxPoint x="580" y="480" as="sourcePoint" />
          </mxGeometry>
        </mxCell>
        <mxCell id="L_Qbva6FgTCeG8r_FS7e-21" value="설정하기" style="shape=rhombus;perimeter=rhombusPerimeter;whiteSpace=wrap;html=1;align=center;" vertex="1" parent="1">
          <mxGeometry x="464" y="450" width="120" height="60" as="geometry" />
        </mxCell>
        <mxCell id="L_Qbva6FgTCeG8r_FS7e-24" style="edgeStyle=orthogonalEdgeStyle;rounded=0;orthogonalLoop=1;jettySize=auto;html=1;entryX=0.5;entryY=0;entryDx=0;entryDy=0;" edge="1" parent="1" source="L_Qbva6FgTCeG8r_FS7e-22" target="L_Qbva6FgTCeG8r_FS7e-4">
          <mxGeometry relative="1" as="geometry" />
        </mxCell>
        <mxCell id="L_Qbva6FgTCeG8r_FS7e-25" style="edgeStyle=orthogonalEdgeStyle;rounded=0;orthogonalLoop=1;jettySize=auto;html=1;entryX=0.5;entryY=0;entryDx=0;entryDy=0;" edge="1" parent="1" source="L_Qbva6FgTCeG8r_FS7e-22" target="L_Qbva6FgTCeG8r_FS7e-5">
          <mxGeometry relative="1" as="geometry" />
        </mxCell>
        <mxCell id="L_Qbva6FgTCeG8r_FS7e-26" style="edgeStyle=orthogonalEdgeStyle;rounded=0;orthogonalLoop=1;jettySize=auto;html=1;entryX=0.5;entryY=0;entryDx=0;entryDy=0;" edge="1" parent="1" source="L_Qbva6FgTCeG8r_FS7e-22" target="L_Qbva6FgTCeG8r_FS7e-3">
          <mxGeometry relative="1" as="geometry" />
        </mxCell>
        <mxCell id="L_Qbva6FgTCeG8r_FS7e-22" value="추가하기" style="shape=rhombus;perimeter=rhombusPerimeter;whiteSpace=wrap;html=1;align=center;" vertex="1" parent="1">
          <mxGeometry x="290" y="540" width="120" height="60" as="geometry" />
        </mxCell>
        <mxCell id="L_Qbva6FgTCeG8r_FS7e-28" value="보관온도" style="ellipse;whiteSpace=wrap;html=1;align=center;" vertex="1" parent="1">
          <mxGeometry y="880" width="80" height="50" as="geometry" />
        </mxCell>
        <mxCell id="L_Qbva6FgTCeG8r_FS7e-32" value="&lt;u&gt;이름&lt;/u&gt;" style="ellipse;whiteSpace=wrap;html=1;align=center;" vertex="1" parent="1">
          <mxGeometry x="-90" y="880" width="80" height="50" as="geometry" />
        </mxCell>
        <mxCell id="L_Qbva6FgTCeG8r_FS7e-33" value="사진" style="ellipse;whiteSpace=wrap;html=1;align=center;" vertex="1" parent="1">
          <mxGeometry x="95" y="880" width="80" height="50" as="geometry" />
        </mxCell>
        <mxCell id="L_Qbva6FgTCeG8r_FS7e-34" value="메모" style="ellipse;whiteSpace=wrap;html=1;align=center;" vertex="1" parent="1">
          <mxGeometry x="190" y="880" width="80" height="50" as="geometry" />
        </mxCell>
        <mxCell id="L_Qbva6FgTCeG8r_FS7e-41" value="&lt;u&gt;이름&lt;/u&gt;" style="ellipse;whiteSpace=wrap;html=1;align=center;" vertex="1" parent="1">
          <mxGeometry x="175" y="635" width="80" height="50" as="geometry" />
        </mxCell>
        <mxCell id="L_Qbva6FgTCeG8r_FS7e-42" value="수량" style="ellipse;whiteSpace=wrap;html=1;align=center;" vertex="1" parent="1">
          <mxGeometry x="195" y="700" width="80" height="50" as="geometry" />
        </mxCell>
        <mxCell id="L_Qbva6FgTCeG8r_FS7e-46" value="유통기한" style="ellipse;whiteSpace=wrap;html=1;align=center;" vertex="1" parent="1">
          <mxGeometry x="530" y="880" width="80" height="50" as="geometry" />
        </mxCell>
        <mxCell id="L_Qbva6FgTCeG8r_FS7e-47" value="카테고리" style="ellipse;whiteSpace=wrap;html=1;align=center;" vertex="1" parent="1">
          <mxGeometry x="710" y="880" width="80" height="50" as="geometry" />
        </mxCell>
        <mxCell id="L_Qbva6FgTCeG8r_FS7e-48" value="수량" style="ellipse;whiteSpace=wrap;html=1;align=center;" vertex="1" parent="1">
          <mxGeometry x="620" y="880" width="80" height="50" as="geometry" />
        </mxCell>
        <mxCell id="L_Qbva6FgTCeG8r_FS7e-53" value="보관온도" style="ellipse;whiteSpace=wrap;html=1;align=center;" vertex="1" parent="1">
          <mxGeometry x="810" y="880" width="80" height="50" as="geometry" />
        </mxCell>
        <mxCell id="L_Qbva6FgTCeG8r_FS7e-55" value="알림" style="ellipse;whiteSpace=wrap;html=1;align=center;" vertex="1" parent="1">
          <mxGeometry x="790" y="400" width="80" height="50" as="geometry" />
        </mxCell>
        <mxCell id="L_Qbva6FgTCeG8r_FS7e-56" value="로그인" style="ellipse;whiteSpace=wrap;html=1;align=center;" vertex="1" parent="1">
          <mxGeometry x="790" y="460" width="80" height="50" as="geometry" />
        </mxCell>
        <mxCell id="L_Qbva6FgTCeG8r_FS7e-57" value="테마" style="ellipse;whiteSpace=wrap;html=1;align=center;" vertex="1" parent="1">
          <mxGeometry x="790" y="520" width="80" height="50" as="geometry" />
        </mxCell>
        <mxCell id="L_Qbva6FgTCeG8r_FS7e-61" style="rounded=0;orthogonalLoop=1;jettySize=auto;html=1;entryX=0;entryY=0.8;entryDx=0;entryDy=0;entryPerimeter=0;" edge="1" parent="1" source="L_Qbva6FgTCeG8r_FS7e-2" target="L_Qbva6FgTCeG8r_FS7e-57">
          <mxGeometry relative="1" as="geometry" />
        </mxCell>
        <mxCell id="L_Qbva6FgTCeG8r_FS7e-62" value="보관하기" style="shape=rhombus;perimeter=rhombusPerimeter;whiteSpace=wrap;html=1;align=center;" vertex="1" parent="1">
          <mxGeometry x="294" y="800" width="120" height="60" as="geometry" />
        </mxCell>
        <mxCell id="L_Qbva6FgTCeG8r_FS7e-66" value="이름" style="ellipse;whiteSpace=wrap;html=1;align=center;fontStyle=4;" vertex="1" parent="1">
          <mxGeometry x="440" y="880" width="80" height="50" as="geometry" />
        </mxCell>
        <mxCell id="L_Qbva6FgTCeG8r_FS7e-80" style="rounded=0;orthogonalLoop=1;jettySize=auto;html=1;entryX=0.5;entryY=0;entryDx=0;entryDy=0;" edge="1" parent="1" source="L_Qbva6FgTCeG8r_FS7e-70" target="L_Qbva6FgTCeG8r_FS7e-75">
          <mxGeometry relative="1" as="geometry" />
        </mxCell>
        <mxCell id="L_Qbva6FgTCeG8r_FS7e-82" style="rounded=0;orthogonalLoop=1;jettySize=auto;html=1;entryX=0.5;entryY=0;entryDx=0;entryDy=0;" edge="1" parent="1" source="L_Qbva6FgTCeG8r_FS7e-70" target="L_Qbva6FgTCeG8r_FS7e-74">
          <mxGeometry relative="1" as="geometry" />
        </mxCell>
        <mxCell id="L_Qbva6FgTCeG8r_FS7e-86" style="edgeStyle=orthogonalEdgeStyle;rounded=0;orthogonalLoop=1;jettySize=auto;html=1;entryX=0;entryY=0.5;entryDx=0;entryDy=0;" edge="1" parent="1" source="L_Qbva6FgTCeG8r_FS7e-70" target="L_Qbva6FgTCeG8r_FS7e-83">
          <mxGeometry relative="1" as="geometry" />
        </mxCell>
        <mxCell id="L_Qbva6FgTCeG8r_FS7e-70" value="캘린더" style="rounded=1;arcSize=10;whiteSpace=wrap;html=1;align=center;" vertex="1" parent="1">
          <mxGeometry x="-90" y="460" width="100" height="40" as="geometry" />
        </mxCell>
        <mxCell id="L_Qbva6FgTCeG8r_FS7e-78" style="rounded=0;orthogonalLoop=1;jettySize=auto;html=1;" edge="1" parent="1" source="L_Qbva6FgTCeG8r_FS7e-71" target="L_Qbva6FgTCeG8r_FS7e-72">
          <mxGeometry relative="1" as="geometry" />
        </mxCell>
        <mxCell id="L_Qbva6FgTCeG8r_FS7e-84" style="edgeStyle=orthogonalEdgeStyle;rounded=0;orthogonalLoop=1;jettySize=auto;html=1;entryX=0.5;entryY=0;entryDx=0;entryDy=0;" edge="1" parent="1" source="L_Qbva6FgTCeG8r_FS7e-71" target="L_Qbva6FgTCeG8r_FS7e-83">
          <mxGeometry relative="1" as="geometry" />
        </mxCell>
        <mxCell id="L_Qbva6FgTCeG8r_FS7e-71" value="알림" style="rounded=1;arcSize=10;whiteSpace=wrap;html=1;align=center;" vertex="1" parent="1">
          <mxGeometry x="-90" y="360" width="100" height="40" as="geometry" />
        </mxCell>
        <mxCell id="L_Qbva6FgTCeG8r_FS7e-72" value="&lt;u&gt;이름&lt;/u&gt;" style="ellipse;whiteSpace=wrap;html=1;align=center;" vertex="1" parent="1">
          <mxGeometry x="-200" y="320" width="80" height="50" as="geometry" />
        </mxCell>
        <mxCell id="L_Qbva6FgTCeG8r_FS7e-73" value="유통기한" style="ellipse;whiteSpace=wrap;html=1;align=center;" vertex="1" parent="1">
          <mxGeometry x="-200" y="380" width="80" height="50" as="geometry" />
        </mxCell>
        <mxCell id="L_Qbva6FgTCeG8r_FS7e-74" value="구매한 식품" style="ellipse;whiteSpace=wrap;html=1;align=center;" vertex="1" parent="1">
          <mxGeometry x="10" y="520" width="80" height="50" as="geometry" />
        </mxCell>
        <mxCell id="L_Qbva6FgTCeG8r_FS7e-75" value="유통기한" style="ellipse;whiteSpace=wrap;html=1;align=center;" vertex="1" parent="1">
          <mxGeometry x="-90" y="520" width="80" height="50" as="geometry" />
        </mxCell>
        <mxCell id="L_Qbva6FgTCeG8r_FS7e-76" value="&lt;u&gt;이름&lt;/u&gt;" style="ellipse;whiteSpace=wrap;html=1;align=center;" vertex="1" parent="1">
          <mxGeometry x="-190" y="520" width="80" height="50" as="geometry" />
        </mxCell>
        <mxCell id="L_Qbva6FgTCeG8r_FS7e-79" style="rounded=0;orthogonalLoop=1;jettySize=auto;html=1;entryX=0.971;entryY=0.407;entryDx=0;entryDy=0;entryPerimeter=0;" edge="1" parent="1" source="L_Qbva6FgTCeG8r_FS7e-71" target="L_Qbva6FgTCeG8r_FS7e-73">
          <mxGeometry relative="1" as="geometry" />
        </mxCell>
        <mxCell id="L_Qbva6FgTCeG8r_FS7e-81" style="rounded=0;orthogonalLoop=1;jettySize=auto;html=1;entryX=0.679;entryY=0.023;entryDx=0;entryDy=0;entryPerimeter=0;" edge="1" parent="1" source="L_Qbva6FgTCeG8r_FS7e-70" target="L_Qbva6FgTCeG8r_FS7e-76">
          <mxGeometry relative="1" as="geometry" />
        </mxCell>
        <mxCell id="L_Qbva6FgTCeG8r_FS7e-83" value="편의 기능" style="shape=rhombus;perimeter=rhombusPerimeter;whiteSpace=wrap;html=1;align=center;" vertex="1" parent="1">
          <mxGeometry x="100" y="450" width="120" height="60" as="geometry" />
        </mxCell>
      </root>
    </mxGraphModel>
  </diagram>
</mxfile>
